{
	"asset":{
		"generator":"Khronos glTF Blender I/O v5.0.21",
		"version":"2.0"
	},
	"scene":0,
	"scenes":[
		{
			"name":"Scene",
			"nodes":[
				0
			]
		}
	],
	"nodes":[
		{
			"mesh":0,
			"name":"Knife"
		}
	],
	"materials":[
		{
			"doubleSided":true,
			"name":"Base",
			"pbrMetallicRoughness":{
				"baseColorFactor":[
					0.06593970209360123,
					0.01833394356071949,
					0,
					1
				],
				"metallicFactor":0,
				"roughnessFactor":0.5
			}
		},
		{
			"doubleSided":true,
			"name":"GoldenTexture",
			"pbrMetallicRoughness":{
				"baseColorFactor":[
					0.8000074625015259,
					0.5495457053184509,
					0,
					1
				],
				"roughnessFactor":0.5
			}
		},
		{
			"doubleSided":true,
			"name":"Depth",
			"pbrMetallicRoughness":{
				"baseColorFactor":[
					0.019606469199061394,
					0.01113042514771223,
					0.004419718403369188,
					1
				],
				"metallicFactor":0,
				"roughnessFactor":0.5
			}
		},
		{
			"doubleSided":true,
			"name":"Blade",
			"pbrMetallicRoughness":{
				"baseColorFactor":[
					0.2096453309059143,
					0.2096453309059143,
					0.2096453309059143,
					1
				],
				"roughnessFactor":0.5
			}
		}
	],
	"meshes":[
		{
			"name":"Knife",
			"primitives":[
				{
					"attributes":{
						"POSITION":0,
						"NORMAL":1,
						"TEXCOORD_0":2
					},
					"indices":3,
					"material":0
				},
				{
					"attributes":{
						"POSITION":4,
						"NORMAL":5,
						"TEXCOORD_0":6
					},
					"indices":7,
					"material":1
				},
				{
					"attributes":{
						"POSITION":8,
						"NORMAL":9,
						"TEXCOORD_0":10
					},
					"indices":11,
					"material":2
				},
				{
					"attributes":{
						"POSITION":12,
						"NORMAL":13,
						"TEXCOORD_0":14
					},
					"indices":15,
					"material":3
				}
			]
		}
	],
	"accessors":[
		{
			"bufferView":0,
			"componentType":5126,
			"count":2222,
			"max":[
				0.4530351161956787,
				0.9260000586509705,
				0.5854337215423584
			],
			"min":[
				-0.4530352056026459,
				-1.3715215921401978,
				-0.6605079174041748
			],
			"type":"VEC3"
		},
		{
			"bufferView":1,
			"componentType":5126,
			"count":2222,
			"type":"VEC3"
		},
		{
			"bufferView":2,
			"componentType":5126,
			"count":2222,
			"type":"VEC2"
		},
		{
			"bufferView":3,
			"componentType":5123,
			"count":3354,
			"type":"SCALAR"
		},
		{
			"bufferView":4,
			"componentType":5126,
			"count":3040,
			"max":[
				0.4530351161956787,
				1.325713872909546,
				0.6102434396743774
			],
			"min":[
				-0.4530352056026459,
				-1.404937744140625,
				-0.6605079174041748
			],
			"type":"VEC3"
		},
		{
			"bufferView":5,
			"componentType":5126,
			"count":3040,
			"type":"VEC3"
		},
		{
			"bufferView":6,
			"componentType":5126,
			"count":3040,
			"type":"VEC2"
		},
		{
			"bufferView":7,
			"componentType":5123,
			"count":5814,
			"type":"SCALAR"
		},
		{
			"bufferView":8,
			"componentType":5126,
			"count":4930,
			"max":[
				0.3474351167678833,
				0.9822008609771729,
				0.48161497712135315
			],
			"min":[
				-0.3474351167678833,
				-0.9262322187423706,
				-0.5790318250656128
			],
			"type":"VEC3"
		},
		{
			"bufferView":9,
			"componentType":5126,
			"count":4930,
			"type":"VEC3"
		},
		{
			"bufferView":10,
			"componentType":5126,
			"count":4930,
			"type":"VEC2"
		},
		{
			"bufferView":11,
			"componentType":5123,
			"count":9216,
			"type":"SCALAR"
		},
		{
			"bufferView":12,
			"componentType":5126,
			"count":1137,
			"max":[
				0.045847389847040176,
				5.808359622955322,
				1.0768824815750122
			],
			"min":[
				-0.045847389847040176,
				1.2000000476837158,
				-0.4750001132488251
			],
			"type":"VEC3"
		},
		{
			"bufferView":13,
			"componentType":5126,
			"count":1137,
			"type":"VEC3"
		},
		{
			"bufferView":14,
			"componentType":5126,
			"count":1137,
			"type":"VEC2"
		},
		{
			"bufferView":15,
			"componentType":5123,
			"count":1872,
			"type":"SCALAR"
		}
	],
	"bufferViews":[
		{
			"buffer":0,
			"byteLength":26664,
			"byteOffset":0,
			"target":34962
		},
		{
			"buffer":0,
			"byteLength":26664,
			"byteOffset":26664,
			"target":34962
		},
		{
			"buffer":0,
			"byteLength":17776,
			"byteOffset":53328,
			"target":34962
		},
		{
			"buffer":0,
			"byteLength":6708,
			"byteOffset":71104,
			"target":34963
		},
		{
			"buffer":0,
			"byteLength":36480,
			"byteOffset":77812,
			"target":34962
		},
		{
			"buffer":0,
			"byteLength":36480,
			"byteOffset":114292,
			"target":34962
		},
		{
			"buffer":0,
			"byteLength":24320,
			"byteOffset":150772,
			"target":34962
		},
		{
			"buffer":0,
			"byteLength":11628,
			"byteOffset":175092,
			"target":34963
		},
		{
			"buffer":0,
			"byteLength":59160,
			"byteOffset":186720,
			"target":34962
		},
		{
			"buffer":0,
			"byteLength":59160,
			"byteOffset":245880,
			"target":34962
		},
		{
			"buffer":0,
			"byteLength":39440,
			"byteOffset":305040,
			"target":34962
		},
		{
			"buffer":0,
			"byteLength":18432,
			"byteOffset":344480,
			"target":34963
		},
		{
			"buffer":0,
			"byteLength":13644,
			"byteOffset":362912,
			"target":34962
		},
		{
			"buffer":0,
			"byteLength":13644,
			"byteOffset":376556,
			"target":34962
		},
		{
			"buffer":0,
			"byteLength":9096,
			"byteOffset":390200,
			"target":34962
		},
		{
			"buffer":0,
			"byteLength":3744,
			"byteOffset":399296,
			"target":34963
		}
	],
	"buffers":[
		{
			"byteLength":403040,
			"uri":"data:application/octet-stream;base64,"
		}
	]
}
